<svg width="50" height="50" viewBox="0 0 50 50" fill="none" xmlns="http://www.w3.org/2000/svg">
<circle cx="25" cy="25" r="25" fill="#DFDFDF"/>
<path d="M42.9373 14.98C42.6583 13.88 41.5622 13.24 40.4662 13.48C35.7232 14.54 30.4422 15 25.5 15C20.5578 15 15.2768 14.54 10.5339 13.48C9.43786 13.24 8.34181 13.88 8.06281 14.98C7.78382 16.1 8.46138 17.24 9.55743 17.5C12.7659 18.22 16.2334 18.72 19.5216 19V43C19.5216 44.1 20.4183 45 21.5144 45C22.6104 45 23.5072 44.1 23.5072 43V33H27.4929V43C27.4929 44.1 28.3896 45 29.4857 45C30.5817 45 31.4785 44.1 31.4785 43V19C34.7667 18.72 38.2342 18.22 41.4227 17.5C42.5387 17.24 43.2163 16.1 42.9373 14.98ZM25.5 13C27.6921 13 29.4857 11.2 29.4857 9C29.4857 6.8 27.6921 5 25.5 5C23.3079 5 21.5144 6.8 21.5144 9C21.5144 11.2 23.3079 13 25.5 13Z" fill="#202020"/>
</svg>
