<svg width="50" height="50" viewBox="0 0 50 50" fill="none" xmlns="http://www.w3.org/2000/svg">
<circle cx="25" cy="25" r="25" fill="#DFDFDF"/>
<path d="M38.3533 26.4152C38.4269 25.8626 38.4638 25.2915 38.4638 24.6837C38.4638 24.0942 38.4269 23.5047 38.3348 22.9521L42.0742 20.0417C42.4058 19.7838 42.4979 19.2865 42.2952 18.918L38.7585 12.8025C38.5375 12.3972 38.077 12.2683 37.6717 12.3972L33.2692 14.1656C32.3482 13.4656 31.3719 12.8761 30.2851 12.434L29.622 7.75524C29.5483 7.31315 29.1799 7 28.7378 7H21.6643C21.2222 7 20.8722 7.31315 20.7985 7.75524L20.1354 12.434C19.0486 12.8761 18.0539 13.484 17.1513 14.1656L12.7488 12.3972C12.3435 12.2498 11.883 12.3972 11.662 12.8025L8.14368 18.918C7.92263 19.3049 7.99632 19.7838 8.36473 20.0417L12.1041 22.9521C12.012 23.5047 11.9383 24.1126 11.9383 24.6837C11.9383 25.2547 11.9751 25.8626 12.0672 26.4152L8.32788 29.3256C7.99632 29.5835 7.90421 30.0809 8.10684 30.4493L11.6436 36.5649C11.8646 36.9701 12.3251 37.0991 12.7304 36.9701L17.1329 35.2018C18.0539 35.9017 19.0302 36.4912 20.117 36.9333L20.7801 41.6121C20.8722 42.0542 21.2222 42.3673 21.6643 42.3673H28.7378C29.1799 42.3673 29.5483 42.0542 29.6035 41.6121L30.2667 36.9333C31.3535 36.4912 32.3482 35.9017 33.2508 35.2018L37.6533 36.9701C38.0585 37.1175 38.519 36.9701 38.7401 36.5649L42.2768 30.4493C42.4979 30.044 42.4058 29.5835 42.0558 29.3256L38.3533 26.4152ZM25.201 31.315C21.5538 31.315 18.5697 28.3309 18.5697 24.6837C18.5697 21.0364 21.5538 18.0523 25.201 18.0523C28.8483 18.0523 31.8324 21.0364 31.8324 24.6837C31.8324 28.3309 28.8483 31.315 25.201 31.315Z" fill="#202020"/>
</svg>
