<svg width="25" height="25" viewBox="0 0 25 25" fill="none" xmlns="http://www.w3.org/2000/svg">
<path d="M12.5 0C5.6075 0 0 5.6075 0 12.5C0 19.3925 5.6075 25 12.5 25C19.3925 25 25 19.3925 25 12.5C25 5.6075 19.3925 0 12.5 0ZM2.5 12.5C2.5 11.3763 2.695 10.2975 3.03875 9.28875L5 11.25L7.5 13.75V16.25L10 18.75L11.25 20V22.4137C6.32625 21.795 2.5 17.59 2.5 12.5ZM20.4125 18.5912C19.5963 17.9337 18.3587 17.5 17.5 17.5V16.25C17.5 14.87 16.38 13.75 15 13.75H10V11.25V10C11.38 10 12.5 8.88 12.5 7.5V6.25H13.75C15.13 6.25 16.25 5.13 16.25 3.75V3.23625C19.91 4.7225 22.5 8.3125 22.5 12.5C22.5 14.7937 21.7162 16.9025 20.4125 18.5912Z" fill="white"/>
</svg>
