<svg width="1440" height="1024" viewBox="0 0 1440 1024" fill="none" xmlns="http://www.w3.org/2000/svg">
<g clip-path="url(#clip0_242_2737)">
<rect width="1440" height="1024" fill="#DFDFDF"/>
<path fill-rule="evenodd" clip-rule="evenodd" d="M-0.999985 947.2V1023.6L64.5006 985.4L64.5009 909L-0.999985 947.2Z" fill="#464646"/>
<path fill-rule="evenodd" clip-rule="evenodd" d="M-1.00121 869.2V945.6L64.4994 907.4L64.4996 831L-1.00121 869.2Z" fill="#E1001E"/>
<path fill-rule="evenodd" clip-rule="evenodd" d="M334 907.2V983.6L399.501 945.4L399.501 869L334 907.2Z" fill="#E1001E"/>
<path fill-rule="evenodd" clip-rule="evenodd" d="M65.9999 830.2V906.6L131.501 868.4L131.501 792L65.9999 830.2Z" fill="#464646"/>
<path fill-rule="evenodd" clip-rule="evenodd" d="M131.501 948V1024.4L66 986.2L131.501 948Z" fill="#ABABAB"/>
<path fill-rule="evenodd" clip-rule="evenodd" d="M265.501 868V944.4L200 906.2L265.501 868Z" fill="#ABABAB"/>
<path fill-rule="evenodd" clip-rule="evenodd" d="M399.501 947V1023.4L334 985.2L399.501 947Z" fill="#ABABAB"/>
<path fill-rule="evenodd" clip-rule="evenodd" d="M267 868V944.4L332.501 906.2L267 868Z" fill="#686868"/>
<path fill-rule="evenodd" clip-rule="evenodd" d="M200 828.2V904.6L265.501 866.4L265.501 790L200 828.2Z" fill="#464646"/>
<path fill-rule="evenodd" clip-rule="evenodd" d="M267 946.2V1022.6L332.501 984.4L332.501 908L267 946.2Z" fill="#464646"/>
<path fill-rule="evenodd" clip-rule="evenodd" d="M133 947.2V1023.6L198.501 985.4L198.501 909L133 947.2Z" fill="#464646"/>
<path fill-rule="evenodd" clip-rule="evenodd" d="M65.9999 752.2V828.6L131.501 790.4L131.501 714L65.9999 752.2Z" fill="#464646"/>
<path fill-rule="evenodd" clip-rule="evenodd" d="M198.501 829.2V905.6L133 867.4L133 791L198.501 829.2Z" fill="#464646"/>
<path fill-rule="evenodd" clip-rule="evenodd" d="M66 908L131.501 946.2L66 984.4V908Z" fill="#474747"/>
<path fill-rule="evenodd" clip-rule="evenodd" d="M198.501 751L133 789.2L198.501 827.4L264.001 789.2L198.501 751Z" fill="#E1001E"/>
<path fill-rule="evenodd" clip-rule="evenodd" d="M133.501 869L68 907.2L133.501 945.4L199.001 907.2L133.501 869Z" fill="#E1001E"/>
<path fill-rule="evenodd" clip-rule="evenodd" d="M198.501 987L133 1025.2L198.501 1063.4L264.001 1025.2L198.501 987Z" fill="#E1001E"/>
<path fill-rule="evenodd" clip-rule="evenodd" d="M332.501 986L267 1024.2L332.501 1062.4L398.001 1024.2L332.501 986Z" fill="#202020"/>
<path fill-rule="evenodd" clip-rule="evenodd" d="M66.0012 673.2V749.6L131.502 711.4L131.502 635L66.0012 673.2Z" fill="#464646"/>
<path fill-rule="evenodd" clip-rule="evenodd" d="M66 595.2V671.6L131.501 633.4L131.501 557L66 595.2Z" fill="#E1001E"/>
<path fill-rule="evenodd" clip-rule="evenodd" d="M401.001 633.2V709.6L466.502 671.4L466.502 595L401.001 633.2Z" fill="#E1001E"/>
<path fill-rule="evenodd" clip-rule="evenodd" d="M133.001 556.2V632.6L198.502 594.4L198.502 518L133.001 556.2Z" fill="#464646"/>
<path fill-rule="evenodd" clip-rule="evenodd" d="M198.502 674V750.4L133.001 712.2L198.502 674Z" fill="#ABABAB"/>
<path fill-rule="evenodd" clip-rule="evenodd" d="M332.502 594V670.4L267.001 632.2L332.502 594Z" fill="#ABABAB"/>
<path fill-rule="evenodd" clip-rule="evenodd" d="M466.502 673V749.4L401.001 711.2L466.502 673Z" fill="#ABABAB"/>
<path fill-rule="evenodd" clip-rule="evenodd" d="M334.001 594V670.4L399.502 632.2L334.001 594Z" fill="#686868"/>
<path fill-rule="evenodd" clip-rule="evenodd" d="M267.001 554.2V630.6L332.502 592.4L332.502 516L267.001 554.2Z" fill="#464646"/>
<path fill-rule="evenodd" clip-rule="evenodd" d="M334.001 672.2V748.6L399.502 710.4L399.502 634L334.001 672.2Z" fill="#464646"/>
<path fill-rule="evenodd" clip-rule="evenodd" d="M200.001 673.2V749.6L265.502 711.4L265.502 635L200.001 673.2Z" fill="#464646"/>
<path fill-rule="evenodd" clip-rule="evenodd" d="M133.001 478.2V554.6L198.502 516.4L198.502 440L133.001 478.2Z" fill="#464646"/>
<path fill-rule="evenodd" clip-rule="evenodd" d="M265.502 555.2V631.6L200.001 593.4L200.001 517L265.502 555.2Z" fill="#464646"/>
<path fill-rule="evenodd" clip-rule="evenodd" d="M133.001 634L198.502 672.2L133.001 710.4V634Z" fill="#474747"/>
<path fill-rule="evenodd" clip-rule="evenodd" d="M265.502 477L200.001 515.2L265.502 553.4L331.002 515.2L265.502 477Z" fill="#E1001E"/>
<path fill-rule="evenodd" clip-rule="evenodd" d="M200.502 595L135.001 633.2L200.502 671.4L266.002 633.2L200.502 595Z" fill="#E1001E"/>
<path fill-rule="evenodd" clip-rule="evenodd" d="M266.502 712L201.001 750.2L266.502 788.4L332.002 750.2L266.502 712Z" fill="#E1001E"/>
<path fill-rule="evenodd" clip-rule="evenodd" d="M399.502 712L334.001 750.2L399.502 788.4L465.002 750.2L399.502 712Z" fill="#202020"/>
<path fill-rule="evenodd" clip-rule="evenodd" d="M535.001 789.2V865.6L600.502 827.4L600.502 751L535.001 789.2Z" fill="#464646"/>
<path fill-rule="evenodd" clip-rule="evenodd" d="M535 711.2V787.6L600.501 749.4L600.501 673L535 711.2Z" fill="#E1001E"/>
<path fill-rule="evenodd" clip-rule="evenodd" d="M870.001 749.2V825.6L935.502 787.4L935.502 711L870.001 749.2Z" fill="#E1001E"/>
<path fill-rule="evenodd" clip-rule="evenodd" d="M602.001 672.2V748.6L667.502 710.4L667.502 634L602.001 672.2Z" fill="#464646"/>
<path fill-rule="evenodd" clip-rule="evenodd" d="M667.502 790V866.4L602.001 828.2L667.502 790Z" fill="#ABABAB"/>
<path fill-rule="evenodd" clip-rule="evenodd" d="M801.502 710V786.4L736.001 748.2L801.502 710Z" fill="#ABABAB"/>
<path fill-rule="evenodd" clip-rule="evenodd" d="M935.502 789V865.4L870.001 827.2L935.502 789Z" fill="#ABABAB"/>
<path fill-rule="evenodd" clip-rule="evenodd" d="M803.001 710V786.4L868.502 748.2L803.001 710Z" fill="#686868"/>
<path fill-rule="evenodd" clip-rule="evenodd" d="M736.001 670.2V746.6L801.502 708.4L801.502 632L736.001 670.2Z" fill="#464646"/>
<path fill-rule="evenodd" clip-rule="evenodd" d="M803.001 788.2V864.6L868.502 826.4L868.502 750L803.001 788.2Z" fill="#464646"/>
<path fill-rule="evenodd" clip-rule="evenodd" d="M669.001 789.2V865.6L734.502 827.4L734.502 751L669.001 789.2Z" fill="#464646"/>
<path fill-rule="evenodd" clip-rule="evenodd" d="M602.001 594.2V670.6L667.502 632.4L667.502 556L602.001 594.2Z" fill="#464646"/>
<path fill-rule="evenodd" clip-rule="evenodd" d="M734.502 671.2V747.6L669.001 709.4L669.001 633L734.502 671.2Z" fill="#464646"/>
<path fill-rule="evenodd" clip-rule="evenodd" d="M602.001 750L667.502 788.2L602.001 826.4V750Z" fill="#474747"/>
<path fill-rule="evenodd" clip-rule="evenodd" d="M734.502 593L669.001 631.2L734.502 669.4L800.002 631.2L734.502 593Z" fill="#E1001E"/>
<path fill-rule="evenodd" clip-rule="evenodd" d="M669.502 711L604.001 749.2L669.502 787.4L735.002 749.2L669.502 711Z" fill="#E1001E"/>
<path fill-rule="evenodd" clip-rule="evenodd" d="M735.502 828L670.001 866.2L735.502 904.4L801.002 866.2L735.502 828Z" fill="#E1001E"/>
<path fill-rule="evenodd" clip-rule="evenodd" d="M868.502 828L803.001 866.2L868.502 904.4L934.002 866.2L868.502 828Z" fill="#202020"/>
<path fill-rule="evenodd" clip-rule="evenodd" d="M337.001 673.2V749.6L402.502 711.4L402.502 635L337.001 673.2Z" fill="#464646"/>
<path fill-rule="evenodd" clip-rule="evenodd" d="M337 595.2V671.6L402.501 633.4L402.501 557L337 595.2Z" fill="#E1001E"/>
<path fill-rule="evenodd" clip-rule="evenodd" d="M672.001 633.2V709.6L737.502 671.4L737.502 595L672.001 633.2Z" fill="#E1001E"/>
<path fill-rule="evenodd" clip-rule="evenodd" d="M404.001 556.2V632.6L469.502 594.4L469.502 518L404.001 556.2Z" fill="#464646"/>
<path fill-rule="evenodd" clip-rule="evenodd" d="M469.502 674V750.4L404.001 712.2L469.502 674Z" fill="#ABABAB"/>
<path fill-rule="evenodd" clip-rule="evenodd" d="M603.502 594V670.4L538.001 632.2L603.502 594Z" fill="#ABABAB"/>
<path fill-rule="evenodd" clip-rule="evenodd" d="M737.502 673V749.4L672.001 711.2L737.502 673Z" fill="#ABABAB"/>
<path fill-rule="evenodd" clip-rule="evenodd" d="M605.001 594V670.4L670.502 632.2L605.001 594Z" fill="#686868"/>
<path fill-rule="evenodd" clip-rule="evenodd" d="M538.001 554.2V630.6L603.502 592.4L603.502 516L538.001 554.2Z" fill="#464646"/>
<path fill-rule="evenodd" clip-rule="evenodd" d="M605.001 672.2V748.6L670.502 710.4L670.502 634L605.001 672.2Z" fill="#464646"/>
<path fill-rule="evenodd" clip-rule="evenodd" d="M471.001 673.2V749.6L536.502 711.4L536.502 635L471.001 673.2Z" fill="#464646"/>
<path fill-rule="evenodd" clip-rule="evenodd" d="M404.001 478.2V554.6L469.502 516.4L469.502 440L404.001 478.2Z" fill="#464646"/>
<path fill-rule="evenodd" clip-rule="evenodd" d="M536.502 555.2V631.6L471.001 593.4L471.001 517L536.502 555.2Z" fill="#464646"/>
<path fill-rule="evenodd" clip-rule="evenodd" d="M404.001 634L469.502 672.2L404.001 710.4V634Z" fill="#474747"/>
<path fill-rule="evenodd" clip-rule="evenodd" d="M536.502 477L471.001 515.2L536.502 553.4L602.002 515.2L536.502 477Z" fill="#E1001E"/>
<path fill-rule="evenodd" clip-rule="evenodd" d="M471.502 595L406.001 633.2L471.502 671.4L537.002 633.2L471.502 595Z" fill="#E1001E"/>
<path fill-rule="evenodd" clip-rule="evenodd" d="M537.502 712L472.001 750.2L537.502 788.4L603.002 750.2L537.502 712Z" fill="#E1001E"/>
<path fill-rule="evenodd" clip-rule="evenodd" d="M670.502 712L605.001 750.2L670.502 788.4L736.002 750.2L670.502 712Z" fill="#202020"/>
<path fill-rule="evenodd" clip-rule="evenodd" d="M402.001 945.2V1021.6L467.502 983.4L467.502 907L402.001 945.2Z" fill="#464646"/>
<path fill-rule="evenodd" clip-rule="evenodd" d="M402 867.2V943.6L467.501 905.4L467.501 829L402 867.2Z" fill="#E1001E"/>
<path fill-rule="evenodd" clip-rule="evenodd" d="M737.001 905.2V981.6L802.502 943.4L802.502 867L737.001 905.2Z" fill="#E1001E"/>
<path fill-rule="evenodd" clip-rule="evenodd" d="M469.001 828.2V904.6L534.502 866.4L534.502 790L469.001 828.2Z" fill="#464646"/>
<path fill-rule="evenodd" clip-rule="evenodd" d="M534.502 946V1022.4L469.001 984.2L534.502 946Z" fill="#ABABAB"/>
<path fill-rule="evenodd" clip-rule="evenodd" d="M668.502 866V942.4L603.001 904.2L668.502 866Z" fill="#ABABAB"/>
<path fill-rule="evenodd" clip-rule="evenodd" d="M802.502 945V1021.4L737.001 983.2L802.502 945Z" fill="#ABABAB"/>
<path fill-rule="evenodd" clip-rule="evenodd" d="M670.001 866V942.4L735.502 904.2L670.001 866Z" fill="#686868"/>
<path fill-rule="evenodd" clip-rule="evenodd" d="M603.001 826.2V902.6L668.502 864.4L668.502 788L603.001 826.2Z" fill="#464646"/>
<path fill-rule="evenodd" clip-rule="evenodd" d="M670.001 944.2V1020.6L735.502 982.4L735.502 906L670.001 944.2Z" fill="#464646"/>
<path fill-rule="evenodd" clip-rule="evenodd" d="M536.001 945.2V1021.6L601.502 983.4L601.502 907L536.001 945.2Z" fill="#464646"/>
<path fill-rule="evenodd" clip-rule="evenodd" d="M469.001 750.2V826.6L534.502 788.4L534.502 712L469.001 750.2Z" fill="#464646"/>
<path fill-rule="evenodd" clip-rule="evenodd" d="M601.502 827.2V903.6L536.001 865.4L536.001 789L601.502 827.2Z" fill="#464646"/>
<path fill-rule="evenodd" clip-rule="evenodd" d="M469.001 906L534.502 944.2L469.001 982.4V906Z" fill="#474747"/>
<path fill-rule="evenodd" clip-rule="evenodd" d="M601.502 749L536.001 787.2L601.502 825.4L667.002 787.2L601.502 749Z" fill="#E1001E"/>
<path fill-rule="evenodd" clip-rule="evenodd" d="M536.502 867L471.001 905.2L536.502 943.4L602.002 905.2L536.502 867Z" fill="#E1001E"/>
<path fill-rule="evenodd" clip-rule="evenodd" d="M602.502 984L537.001 1022.2L602.502 1060.4L668.002 1022.2L602.502 984Z" fill="#E1001E"/>
<path fill-rule="evenodd" clip-rule="evenodd" d="M735.502 984L670.001 1022.2L735.502 1060.4L801.002 1022.2L735.502 984Z" fill="#202020"/>
<path fill-rule="evenodd" clip-rule="evenodd" d="M870.501 905.2V981.6L805 943.4L805 867L870.501 905.2Z" fill="#E1001E"/>
<path fill-rule="evenodd" clip-rule="evenodd" d="M939 866V942.4L1004.5 904.2L939 866Z" fill="#ABABAB"/>
<path fill-rule="evenodd" clip-rule="evenodd" d="M805 945V1021.4L870.501 983.2L805 945Z" fill="#ABABAB"/>
<path fill-rule="evenodd" clip-rule="evenodd" d="M937.501 866V942.4L872 904.2L937.501 866Z" fill="#686868"/>
<path fill-rule="evenodd" clip-rule="evenodd" d="M1004.5 826.2V902.6L939 864.4L939 788L1004.5 826.2Z" fill="#464646"/>
<path fill-rule="evenodd" clip-rule="evenodd" d="M937.501 944.2V1020.6L872 982.4L872 906L937.501 944.2Z" fill="#464646"/>
<path fill-rule="evenodd" clip-rule="evenodd" d="M872 984L937.501 1022.2L872 1060.4L806.5 1022.2L872 984Z" fill="#202020"/>
<path fill-rule="evenodd" clip-rule="evenodd" d="M-0.998886 790.2V713.8L64.5017 752L64.502 828.4L-0.998886 790.2Z" fill="#E1001E"/>
<path fill-rule="evenodd" clip-rule="evenodd" d="M64.5019 750.4V674L-0.998779 712.2L64.5019 750.4Z" fill="#ABABAB"/>
<path fill-rule="evenodd" clip-rule="evenodd" d="M-1.99866 711.4L-67.4993 673.2L-1.99866 635L63.502 673.2L-1.99866 711.4Z" fill="#202020"/>
<path fill-rule="evenodd" clip-rule="evenodd" d="M840.001 673.2V749.6L905.502 711.4L905.502 635L840.001 673.2Z" fill="#464646"/>
<path fill-rule="evenodd" clip-rule="evenodd" d="M840 595.2V671.6L905.501 633.4L905.501 557L840 595.2Z" fill="#E1001E"/>
<path fill-rule="evenodd" clip-rule="evenodd" d="M1175 633.2V709.6L1240.5 671.4L1240.5 595L1175 633.2Z" fill="#E1001E"/>
<path fill-rule="evenodd" clip-rule="evenodd" d="M907.001 556.2V632.6L972.502 594.4L972.502 518L907.001 556.2Z" fill="#464646"/>
<path fill-rule="evenodd" clip-rule="evenodd" d="M972.502 674V750.4L907.001 712.2L972.502 674Z" fill="#ABABAB"/>
<path fill-rule="evenodd" clip-rule="evenodd" d="M1106.5 594V670.4L1041 632.2L1106.5 594Z" fill="#ABABAB"/>
<path fill-rule="evenodd" clip-rule="evenodd" d="M1240.5 673V749.4L1175 711.2L1240.5 673Z" fill="#ABABAB"/>
<path fill-rule="evenodd" clip-rule="evenodd" d="M1108 594V670.4L1173.5 632.2L1108 594Z" fill="#686868"/>
<path fill-rule="evenodd" clip-rule="evenodd" d="M1041 554.2V630.6L1106.5 592.4L1106.5 516L1041 554.2Z" fill="#464646"/>
<path fill-rule="evenodd" clip-rule="evenodd" d="M1108 672.2V748.6L1173.5 710.4L1173.5 634L1108 672.2Z" fill="#464646"/>
<path fill-rule="evenodd" clip-rule="evenodd" d="M974.001 673.2V749.6L1039.5 711.4L1039.5 635L974.001 673.2Z" fill="#464646"/>
<path fill-rule="evenodd" clip-rule="evenodd" d="M907.001 478.2V554.6L972.502 516.4L972.502 440L907.001 478.2Z" fill="#464646"/>
<path fill-rule="evenodd" clip-rule="evenodd" d="M1039.5 555.2V631.6L974.001 593.4L974.001 517L1039.5 555.2Z" fill="#464646"/>
<path fill-rule="evenodd" clip-rule="evenodd" d="M907.001 634L972.502 672.2L907.001 710.4V634Z" fill="#474747"/>
<path fill-rule="evenodd" clip-rule="evenodd" d="M1039.5 477L974.001 515.2L1039.5 553.4L1105 515.2L1039.5 477Z" fill="#E1001E"/>
<path fill-rule="evenodd" clip-rule="evenodd" d="M974.502 595L909.001 633.2L974.502 671.4L1040 633.2L974.502 595Z" fill="#E1001E"/>
<path fill-rule="evenodd" clip-rule="evenodd" d="M1039.5 713L974.001 751.2L1039.5 789.4L1105 751.2L1039.5 713Z" fill="#E1001E"/>
<path fill-rule="evenodd" clip-rule="evenodd" d="M1173.5 712L1108 750.2L1173.5 788.4L1239 750.2L1173.5 712Z" fill="#202020"/>
<path fill-rule="evenodd" clip-rule="evenodd" d="M1439.5 947.2V1023.6L1374 985.4L1374 909L1439.5 947.2Z" fill="#464646"/>
<path fill-rule="evenodd" clip-rule="evenodd" d="M1439.5 869.2V945.6L1374 907.4L1374 831L1439.5 869.2Z" fill="#E1001E"/>
<path fill-rule="evenodd" clip-rule="evenodd" d="M1104.5 907.2V983.6L1039 945.4L1039 869L1104.5 907.2Z" fill="#E1001E"/>
<path fill-rule="evenodd" clip-rule="evenodd" d="M1372.5 830.2V906.6L1307 868.4L1307 792L1372.5 830.2Z" fill="#464646"/>
<path fill-rule="evenodd" clip-rule="evenodd" d="M1307 948V1024.4L1372.5 986.2L1307 948Z" fill="#ABABAB"/>
<path fill-rule="evenodd" clip-rule="evenodd" d="M1173 868V944.4L1238.5 906.2L1173 868Z" fill="#ABABAB"/>
<path fill-rule="evenodd" clip-rule="evenodd" d="M1039 947V1023.4L1104.5 985.2L1039 947Z" fill="#ABABAB"/>
<path fill-rule="evenodd" clip-rule="evenodd" d="M1171.5 868V944.4L1106 906.2L1171.5 868Z" fill="#686868"/>
<path fill-rule="evenodd" clip-rule="evenodd" d="M1238.5 828.2V904.6L1173 866.4L1173 790L1238.5 828.2Z" fill="#464646"/>
<path fill-rule="evenodd" clip-rule="evenodd" d="M1171.5 946.2V1022.6L1106 984.4L1106 908L1171.5 946.2Z" fill="#464646"/>
<path fill-rule="evenodd" clip-rule="evenodd" d="M1305.5 947.2V1023.6L1240 985.4L1240 909L1305.5 947.2Z" fill="#464646"/>
<path fill-rule="evenodd" clip-rule="evenodd" d="M1372.5 752.2V828.6L1307 790.4L1307 714L1372.5 752.2Z" fill="#464646"/>
<path fill-rule="evenodd" clip-rule="evenodd" d="M1240 829.2V905.6L1305.5 867.4L1305.5 791L1240 829.2Z" fill="#464646"/>
<path fill-rule="evenodd" clip-rule="evenodd" d="M1372.5 908L1307 946.2L1372.5 984.4V908Z" fill="#474747"/>
<path fill-rule="evenodd" clip-rule="evenodd" d="M1240 751L1305.5 789.2L1240 827.4L1174.5 789.2L1240 751Z" fill="#E1001E"/>
<path fill-rule="evenodd" clip-rule="evenodd" d="M1305 869L1370.5 907.2L1305 945.4L1239.5 907.2L1305 869Z" fill="#E1001E"/>
<path fill-rule="evenodd" clip-rule="evenodd" d="M1240 987L1305.5 1025.2L1240 1063.4L1174.5 1025.2L1240 987Z" fill="#E1001E"/>
<path fill-rule="evenodd" clip-rule="evenodd" d="M1105.5 986L1171 1024.2L1105.5 1062.4L1040 1024.2L1105.5 986Z" fill="#202020"/>
<path fill-rule="evenodd" clip-rule="evenodd" d="M1240.5 592.2V515.8L1175 554L1175 630.4L1240.5 592.2Z" fill="#E1001E"/>
<path fill-rule="evenodd" clip-rule="evenodd" d="M1309 631.4V555L1374.5 593.2L1309 631.4Z" fill="#ABABAB"/>
<path fill-rule="evenodd" clip-rule="evenodd" d="M1175 552.4V476L1240.5 514.2L1175 552.4Z" fill="#ABABAB"/>
<path fill-rule="evenodd" clip-rule="evenodd" d="M1307.5 631.4V555L1242 593.2L1307.5 631.4Z" fill="#686868"/>
<path fill-rule="evenodd" clip-rule="evenodd" d="M1374.5 671.2V594.8L1309 633L1309 709.4L1374.5 671.2Z" fill="#464646"/>
<path fill-rule="evenodd" clip-rule="evenodd" d="M1307.5 553.2V476.8L1242 515L1242 591.4L1307.5 553.2Z" fill="#464646"/>
<path fill-rule="evenodd" clip-rule="evenodd" d="M1441.5 552.2V475.8L1376 514L1376 590.4L1441.5 552.2Z" fill="#464646"/>
<path fill-rule="evenodd" clip-rule="evenodd" d="M1376 671.2V594.8L1441.5 633L1441.5 709.4L1376 671.2Z" fill="#464646"/>
<path fill-rule="evenodd" clip-rule="evenodd" d="M1374 750.4L1439.5 712.2L1374 674L1308.5 712.2L1374 750.4Z" fill="#E1001E"/>
<path fill-rule="evenodd" clip-rule="evenodd" d="M1441 630.4L1506.5 592.2L1441 554L1375.5 592.2L1441 630.4Z" fill="#E1001E"/>
<path fill-rule="evenodd" clip-rule="evenodd" d="M1376 512.4L1441.5 474.2L1376 436L1310.5 474.2L1376 512.4Z" fill="#E1001E"/>
<path fill-rule="evenodd" clip-rule="evenodd" d="M1241.5 513.4L1307 475.2L1241.5 437L1176 475.2L1241.5 513.4Z" fill="#202020"/>
<path fill-rule="evenodd" clip-rule="evenodd" d="M135.501 476.4L201.001 438.2L135.501 400L70 438.2L135.501 476.4Z" fill="#202020"/>
</g>
<defs>
<clipPath id="clip0_242_2737">
<rect width="1440" height="1024" fill="white"/>
</clipPath>
</defs>
</svg>
