<svg width="100" height="100" viewBox="0 0 100 100" fill="none" xmlns="http://www.w3.org/2000/svg">
<circle cx="50" cy="50" r="50" fill="#DFDFDF"/>
<circle cx="50.5" cy="50.5" r="42.5" fill="#E1001E"/>
<path d="M74.4634 54.2852H54.2852V74.4634C54.2852 76.6831 52.4692 78.4991 50.2495 78.4991C48.0299 78.4991 46.2139 76.6831 46.2139 74.4634V54.2852H26.0356C23.816 54.2852 22 52.4692 22 50.2495C22 48.0299 23.816 46.2139 26.0356 46.2139H46.2139V26.0356C46.2139 23.816 48.0299 22 50.2495 22C52.4692 22 54.2852 23.816 54.2852 26.0356V46.2139H74.4634C76.6831 46.2139 78.4991 48.0299 78.4991 50.2495C78.4991 52.4692 76.6831 54.2852 74.4634 54.2852Z" fill="#DFDFDF"/>
</svg>
