<svg width="100" height="100" viewBox="0 0 100 100" fill="none" xmlns="http://www.w3.org/2000/svg">
<circle cx="50" cy="50" r="50" fill="#202020"/>
<circle cx="50.5" cy="50.5" r="32.5" fill="#DFDFDF"/>
<path d="M62.1237 43.0618H60.1148V39.0442C60.1148 33.4998 55.615 29 50.0707 29C44.5263 29 40.0265 33.4998 40.0265 39.0442V43.0618H38.0177C35.8079 43.0618 34 44.8698 34 47.0795V67.1678C34 69.3775 35.8079 71.1855 38.0177 71.1855H62.1237C64.3334 71.1855 66.1413 69.3775 66.1413 67.1678V47.0795C66.1413 44.8698 64.3334 43.0618 62.1237 43.0618ZM50.0707 61.1413C47.8609 61.1413 46.053 59.3334 46.053 57.1237C46.053 54.9139 47.8609 53.106 50.0707 53.106C52.2804 53.106 54.0883 54.9139 54.0883 57.1237C54.0883 59.3334 52.2804 61.1413 50.0707 61.1413ZM44.0442 43.0618V39.0442C44.0442 35.7095 46.736 33.0177 50.0707 33.0177C53.4053 33.0177 56.0972 35.7095 56.0972 39.0442V43.0618H44.0442Z" fill="#202020"/>
</svg>
